<?xml version="1.0" encoding="UTF-8"?>
<svg id="Layer_2" data-name="Layer 2" xmlns="http://www.w3.org/2000/svg" viewBox="0 0 1577.81 1398.45">
  <defs>
    <style>
      .cls-1 {
        fill: #109fde;
      }

      .cls-2 {
        fill: #5110de;
      }

      .cls-3 {
        fill: #0e5ae0;
      }
    </style>
  </defs>
  <g id="_Слой_1" data-name="Слой 1">
    <g>
      <path class="cls-2" d="M87.66,1340.01c-48.39,0-87.66-39.26-87.66-87.66v-346.57c0-48.39,39.26-87.66,87.66-87.66s87.66,39.26,87.66,87.66v346.57c0,48.39-39.26,87.66-87.66,87.66Z"/>
      <path class="cls-3" d="M1490.16,1340.01c-48.39,0-87.66-39.26-87.66-87.66v-521.89c0-48.39,39.26-87.66,87.66-87.66s87.66,39.26,87.66,87.66v521.89c0,48.39-39.26,87.66-87.66,87.66Z"/>
      <path class="cls-2" d="M438.28,1398.45c-48.39,0-87.66-39.26-87.66-87.66v-697.2c0-48.39,39.26-87.66,87.66-87.66s87.66,39.26,87.66,87.66v697.2c0,48.39-39.26,87.66-87.66,87.66Z"/>
      <path class="cls-3" d="M1139.53,1281.57c-48.39,0-87.66-39.26-87.66-87.66V379.84c0-48.39,39.26-87.66,87.66-87.66s87.66,39.26,87.66,87.66v814.07c0,48.39-39.26,87.66-87.66,87.66Z"/>
      <path class="cls-1" d="M788.91,1106.26c-48.39,0-87.66-39.26-87.66-87.66V87.66c0-48.39,39.26-87.66,87.66-87.66s87.66,39.26,87.66,87.66v930.95c0,48.39-39.26,87.66-87.66,87.66Z"/>
    </g>
  </g>
</svg>