<?xml version="1.0" encoding="UTF-8"?>
<svg id="Layer_2" data-name="Layer 2" xmlns="http://www.w3.org/2000/svg" viewBox="0 0 2269.41 449.57">
  <defs>
    <style>
      .cls-1 {
        fill: #fff;
      }
    </style>
  </defs>
  <g id="_Слой_1" data-name="Слой 1">
    <g>
      <g>
        <g>
          <path class="cls-1" d="M748.94,96.84h46.29l89.3,226.52h-43.01l-18.38-48.25h-103.08l-18.39,48.25h-42.02l89.29-226.52ZM809.35,238.99l-37.75-99.47-37.75,99.47h75.51Z"/>
          <path class="cls-1" d="M894.82,262.63v-106.7h36.77v95.86c0,23.97,15.43,40.04,39.06,40.04,24.95,0,41.69-16.4,41.69-40.7v-95.21h36.77v167.43h-36.77v-20.68c-12.8,16.09-31.19,24.62-53.51,24.62-38.41,0-64.02-25.61-64.02-64.67Z"/>
          <path class="cls-1" d="M1097.98,271.82v-82.4h-28.23v-33.49h17.07c8.54,0,13.13-4.59,13.13-13.13v-32.18h34.8v45.31h41.36v33.49h-41.36v76.49c0,14.78,9.19,23.64,24.62,23.64h16.74v33.81h-21.99c-36.44,0-56.14-18.38-56.14-51.54Z"/>
          <path class="cls-1" d="M1193.13,239.64c0-49.9,38.41-87.65,89.62-87.65s89.62,37.75,89.62,87.65-38.74,87.65-89.62,87.65-89.62-37.75-89.62-87.65ZM1334.29,239.64c0-29.55-22-52.19-51.54-52.19s-51.87,22.65-51.87,52.19,22.33,52.19,51.87,52.19,51.54-22.65,51.54-52.19Z"/>
          <path class="cls-1" d="M1393.34,210.09c0-66.64,51.54-117.2,119.17-117.2,56.79,0,102.09,35.79,113.26,86.02h-41.37c-10.18-28.89-38.08-48.26-71.89-48.26-44.65,0-78.79,34.14-78.79,79.45s34.15,79.45,78.79,79.45c33.81,0,61.72-19.37,71.89-48.26h41.37c-11.17,50.23-56.47,86.02-113.26,86.02-67.63,0-119.17-50.56-119.17-117.2Z"/>
          <path class="cls-1" d="M1649.67,86.99h36.77v236.36h-36.77V86.99Z"/>
          <path class="cls-1" d="M1718.91,105.7c0-13.46,10.18-23.3,23.31-23.3s23.64,9.84,23.64,23.3-10.18,23.31-23.64,23.31-23.31-10.18-23.31-23.31ZM1723.84,155.93h36.77v167.43h-36.77v-167.43Z"/>
          <path class="cls-1" d="M1785.94,239.64c0-49.9,38.41-87.65,89.3-87.65s89.62,37.75,89.62,87.98c0,4.59-.33,9.52-.99,13.78h-138.54c5.58,24.3,25.28,40.38,51.54,40.38,19.37,0,36.11-8.54,44.65-21.34h40.71c-13.46,32.5-46.29,54.5-86.01,54.5-51.87,0-90.28-37.75-90.28-87.65ZM1825.66,223.55h99.8c-5.58-22.97-25.28-38.41-50.23-38.41s-43.66,15.11-49.57,38.41Z"/>
          <path class="cls-1" d="M1987.13,155.93h36.77v21.34c13.46-16.42,32.82-25.28,56.47-25.28,39.72,0,66.31,26.26,66.31,65.99v105.38h-36.77v-93.23c0-25.61-16.42-42.68-41.69-42.68-26.59,0-44.32,17.4-44.32,43.33v92.58h-36.77v-167.43Z"/>
          <path class="cls-1" d="M2191.28,271.82v-82.4h-28.23v-33.49h17.07c8.54,0,13.13-4.59,13.13-13.13v-32.18h34.8v45.31h41.36v33.49h-41.36v76.49c0,14.78,9.19,23.64,24.62,23.64h16.74v33.81h-21.99c-36.44,0-56.14-18.38-56.14-51.54Z"/>
        </g>
        <g>
          <path class="cls-1" d="M28.18,430.75c-15.56,0-28.18-12.62-28.18-28.18v-111.41c0-15.56,12.62-28.18,28.18-28.18s28.18,12.62,28.18,28.18v111.41c0,15.56-12.62,28.18-28.18,28.18Z"/>
          <path class="cls-1" d="M479.01,430.75c-15.56,0-28.18-12.62-28.18-28.18v-167.76c0-15.56,12.62-28.18,28.18-28.18s28.18,12.62,28.18,28.18v167.76c0,15.56-12.62,28.18-28.18,28.18Z"/>
          <path class="cls-1" d="M140.89,449.53c-15.56,0-28.18-12.62-28.18-28.18v-224.12c0-15.56,12.62-28.18,28.18-28.18s28.18,12.62,28.18,28.18v224.12c0,15.56-12.62,28.18-28.18,28.18Z"/>
          <path class="cls-1" d="M366.3,411.96c-15.56,0-28.18-12.62-28.18-28.18V122.1c0-15.56,12.62-28.18,28.18-28.18s28.18,12.62,28.18,28.18v261.69c0,15.56-12.62,28.18-28.18,28.18Z"/>
          <path class="cls-1" d="M253.6,355.61c-15.56,0-28.18-12.62-28.18-28.18V28.18c0-15.56,12.62-28.18,28.18-28.18s28.18,12.62,28.18,28.18v299.26c0,15.56-12.62,28.18-28.18,28.18Z"/>
        </g>
      </g>
      <g>
        <path class="cls-1" d="M659.65,430.28v-67.91h41.53v10.53h-30.21v17.81h27.85v10.43h-27.85v18.6h30.61v10.53h-41.93Z"/>
        <path class="cls-1" d="M710.15,430.28v-48.81h10.43v4.82c3.15-3.74,8.07-5.81,13.88-5.81,6.99,0,12.6,2.86,15.84,8.36,3.74-5.21,10.04-8.36,17.32-8.36,12.01,0,20.37,8.46,20.37,21.75v28.05h-10.92v-27.06c0-7.78-4.23-12.4-11.22-12.4s-11.32,4.82-11.32,12.4v27.06h-10.92v-27.06c0-7.78-4.23-12.4-11.12-12.4s-11.41,4.82-11.41,12.4v27.06h-10.92Z"/>
        <path class="cls-1" d="M797.96,449.57v-68.1h10.43v6.5c3.54-4.72,9.45-7.48,16.33-7.48,13.97,0,24.6,11.12,24.6,25.39s-10.63,25.39-24.6,25.39c-6.59,0-12.2-2.56-15.84-6.99v25.29h-10.92ZM838.4,405.87c0-8.86-6.3-15.15-14.86-15.15s-14.76,6.3-14.76,15.15,6.2,15.06,14.76,15.06,14.86-6.3,14.86-15.06Z"/>
        <path class="cls-1" d="M854.17,405.87c0-14.27,10.63-25.39,24.6-25.39,6.89,0,12.7,2.76,16.34,7.48v-6.5h10.43v48.81h-10.43v-6.5c-3.54,4.72-9.45,7.48-16.34,7.48-13.97,0-24.6-11.12-24.6-25.39ZM894.71,405.87c0-8.76-6.2-15.15-14.76-15.15s-14.86,6.4-14.86,15.15,6.3,15.06,14.86,15.06,14.76-6.3,14.76-15.06Z"/>
        <path class="cls-1" d="M936.36,430.28c-11.12,0-16.44-4.82-16.44-14.96v-23.82h-8.07v-10.04h5.61c1.48,0,2.46-.98,2.46-2.75v-9.45h10.92v12.2h12.99v10.04h-12.99v22.73c0,3.84,1.87,5.81,6.3,5.81h6.69v10.24h-7.48Z"/>
        <path class="cls-1" d="M951.23,430.28v-67.91h10.92v24.01c3.05-3.74,7.77-5.91,13.78-5.91,12.11,0,20.67,8.56,20.67,22.05v27.75h-10.92v-26.77c0-7.97-4.33-12.7-11.42-12.7s-12.1,4.92-12.1,12.7v26.77h-10.92Z"/>
        <path class="cls-1" d="M1010.88,449.57l7.77-19.19-19.78-48.91h11.81l13.97,36.32,13.78-36.32h11.61l-27.65,68.1h-11.52Z"/>
        <path class="cls-1" d="M1077.42,430.28v-67.91h41.53v10.53h-30.21v17.81h27.85v10.43h-27.85v18.6h30.61v10.53h-41.93Z"/>
        <path class="cls-1" d="M1127.92,430.28v-48.81h10.43v5.02c3.15-3.74,8.17-6,14.37-6,12.01,0,20.57,8.56,20.57,22.05v27.75h-10.92v-26.77c0-7.97-4.33-12.7-11.42-12.7s-12.1,4.92-12.1,12.7v26.77h-10.92Z"/>
        <path class="cls-1" d="M1187.08,449.57v-9.84h24.11c5.91,0,9.25-2.75,9.25-9.35v-7.18c-3.74,4.33-9.45,6.79-15.85,6.79-14.27,0-24.6-10.83-24.6-24.8s11.12-24.7,24.7-24.7c6.4,0,12.2,2.36,15.94,6.99v-6h10.43v48.42c0,13.68-8.66,19.68-20.17,19.68h-23.82ZM1220.15,405.18c0-8.46-6.2-14.66-14.67-14.66s-14.56,6.2-14.56,14.66,6.1,14.66,14.56,14.66,14.67-6.2,14.67-14.66Z"/>
        <path class="cls-1" d="M1240.83,367.59c0-3.64,2.66-6.3,6.3-6.3s6.3,2.66,6.3,6.3-2.66,6.2-6.3,6.2-6.3-2.66-6.3-6.2ZM1241.62,430.28v-48.81h10.92v48.81h-10.92Z"/>
        <path class="cls-1" d="M1263.08,430.28v-48.81h10.43v5.02c3.15-3.74,8.17-6,14.37-6,12.01,0,20.57,8.56,20.57,22.05v27.75h-10.92v-26.77c0-7.97-4.33-12.7-11.42-12.7s-12.1,4.92-12.1,12.7v26.77h-10.92Z"/>
        <path class="cls-1" d="M1315.15,405.87c0-14.27,10.92-25.39,24.8-25.39s24.41,10.63,24.41,25.1c0,1.18,0,2.46-.2,3.64h-38.18c1.28,7.97,6.79,12.5,14.47,12.5,6.1,0,10.73-3.05,12.89-7.68h11.22c-3.74,10.63-13.29,17.22-24.11,17.22-14.37,0-25.29-11.22-25.29-25.39ZM1326.27,401.25h26.96c-.89-6.59-6-11.31-13.38-11.31-6.79,0-12.01,4.23-13.58,11.31Z"/>
        <path class="cls-1" d="M1369.98,405.87c0-14.27,10.92-25.39,24.8-25.39s24.41,10.63,24.41,25.1c0,1.18,0,2.46-.2,3.64h-38.18c1.28,7.97,6.79,12.5,14.47,12.5,6.1,0,10.73-3.05,12.89-7.68h11.22c-3.74,10.63-13.29,17.22-24.11,17.22-14.37,0-25.29-11.22-25.29-25.39ZM1381.11,401.25h26.96c-.89-6.59-6-11.31-13.38-11.31-6.79,0-12.01,4.23-13.58,11.31Z"/>
        <path class="cls-1" d="M1427.18,430.28v-48.81h10.43v6.79c2.75-4.23,7.38-6.79,14.27-6.79h3.34v10.92h-4.62c-8.86,0-12.5,4.82-12.5,12.4v25.49h-10.92Z"/>
        <path class="cls-1" d="M1457.89,405.87c0-14.27,10.92-25.39,24.8-25.39s24.41,10.63,24.41,25.1c0,1.18,0,2.46-.2,3.64h-38.18c1.28,7.97,6.79,12.5,14.47,12.5,6.1,0,10.73-3.05,12.89-7.68h11.22c-3.74,10.63-13.29,17.22-24.11,17.22-14.37,0-25.29-11.22-25.29-25.39ZM1469.01,401.25h26.96c-.89-6.59-6-11.31-13.38-11.31-6.79,0-12.01,4.23-13.58,11.31Z"/>
        <path class="cls-1" d="M1512.72,405.87c0-14.27,10.63-25.39,24.6-25.39,6.59,0,12.2,2.56,15.85,6.99v-25.1h10.92v67.91h-10.43v-6.5c-3.54,4.72-9.45,7.48-16.34,7.48-13.97,0-24.6-11.12-24.6-25.39ZM1553.27,405.87c0-8.76-6.2-15.15-14.76-15.15s-14.86,6.4-14.86,15.15,6.3,15.06,14.86,15.06,14.76-6.3,14.76-15.06Z"/>
        <path class="cls-1" d="M1596.89,430.28v-67.91h40.55v10.83h-29.23v18.5h27.36v10.83h-27.36v27.75h-11.32Z"/>
        <path class="cls-1" d="M1640.2,405.87c0-14.27,11.32-25.39,25.78-25.39s25.69,11.12,25.69,25.39-11.31,25.39-25.69,25.39-25.78-11.12-25.78-25.39ZM1680.75,405.87c0-8.76-6.2-15.15-14.76-15.15s-14.86,6.4-14.86,15.15,6.3,15.16,14.86,15.16,14.76-6.4,14.76-15.16Z"/>
        <path class="cls-1" d="M1698.96,430.28v-48.81h10.43v6.79c2.75-4.23,7.38-6.79,14.27-6.79h3.34v10.92h-4.62c-8.86,0-12.5,4.82-12.5,12.4v25.49h-10.92Z"/>
        <path class="cls-1" d="M1756.06,430.28v-67.91h41.53v10.53h-30.21v17.81h27.85v10.43h-27.85v18.6h30.61v10.53h-41.93Z"/>
        <path class="cls-1" d="M1819.84,430.28l-19.68-48.81h11.81l13.88,36.22,13.97-36.22h11.52l-19.78,48.81h-11.71Z"/>
        <path class="cls-1" d="M1851.15,405.87c0-14.27,10.92-25.39,24.8-25.39s24.41,10.63,24.41,25.1c0,1.18,0,2.46-.2,3.64h-38.18c1.28,7.97,6.79,12.5,14.47,12.5,6.1,0,10.73-3.05,12.89-7.68h11.22c-3.74,10.63-13.29,17.22-24.11,17.22-14.37,0-25.29-11.22-25.29-25.39ZM1862.27,401.25h26.96c-.89-6.59-6-11.31-13.38-11.31-6.79,0-12.01,4.23-13.58,11.31Z"/>
        <path class="cls-1" d="M1908.34,430.28v-48.81h10.43v6.79c2.75-4.23,7.38-6.79,14.27-6.79h3.34v10.92h-4.62c-8.86,0-12.5,4.82-12.5,12.4v25.49h-10.92Z"/>
        <path class="cls-1" d="M1951.16,449.57l7.77-19.19-19.78-48.91h11.81l13.97,36.32,13.78-36.32h11.61l-27.65,68.1h-11.52Z"/>
        <path class="cls-1" d="M2013.97,396.33c0-19.78,15.26-34.94,34.45-34.94,16.04,0,29.62,10.53,33.36,27.06h-11.61c-3.25-10.23-11.61-16.24-21.75-16.24-13.09,0-23.13,10.23-23.13,24.11s10.04,24.11,23.13,24.11c10.13,0,18.6-5.91,21.94-16.33h11.52c-3.54,16.24-17.12,27.16-33.46,27.16-19.19,0-34.45-15.15-34.45-34.94Z"/>
        <path class="cls-1" d="M2090.06,430.28v-67.91h10.92v67.91h-10.92Z"/>
        <path class="cls-1" d="M2110.73,367.59c0-3.64,2.66-6.3,6.3-6.3s6.3,2.66,6.3,6.3-2.66,6.2-6.3,6.2-6.3-2.66-6.3-6.2ZM2111.52,430.28v-48.81h10.92v48.81h-10.92Z"/>
        <path class="cls-1" d="M2129.53,405.87c0-14.27,10.92-25.39,24.8-25.39s24.41,10.63,24.41,25.1c0,1.18,0,2.46-.2,3.64h-38.18c1.28,7.97,6.79,12.5,14.47,12.5,6.1,0,10.73-3.05,12.89-7.68h11.22c-3.74,10.63-13.29,17.22-24.11,17.22-14.37,0-25.29-11.22-25.29-25.39ZM2140.65,401.25h26.96c-.89-6.59-6-11.31-13.38-11.31-6.79,0-12.01,4.23-13.58,11.31Z"/>
        <path class="cls-1" d="M2186.73,430.28v-48.81h10.43v5.02c3.15-3.74,8.17-6,14.37-6,12.01,0,20.57,8.56,20.57,22.05v27.75h-10.92v-26.77c0-7.97-4.33-12.7-11.42-12.7s-12.1,4.92-12.1,12.7v26.77h-10.92Z"/>
        <path class="cls-1" d="M2261.93,430.28c-11.12,0-16.44-4.82-16.44-14.96v-23.82h-8.07v-10.04h5.61c1.48,0,2.46-.98,2.46-2.75v-9.45h10.92v12.2h12.99v10.04h-12.99v22.73c0,3.84,1.87,5.81,6.3,5.81h6.69v10.24h-7.48Z"/>
      </g>
    </g>
  </g>
</svg>