<?xml version="1.0" encoding="UTF-8"?>
<svg id="Layer_2" data-name="Layer 2" xmlns="http://www.w3.org/2000/svg" viewBox="0 0 2341.13 399.51">
  <defs>
    <style>
      .cls-1 {
        fill: #109fde;
      }

      .cls-2 {
        fill: #5110de;
      }

      .cls-3 {
        fill: #0e5ae0;
      }

      .cls-4 {
        fill: #f0f5fa;
      }
    </style>
  </defs>
  <g id="_Слой_1" data-name="Слой 1">
    <g>
      <path class="cls-4" d="M710.09,103.88h49.65l95.79,242.99h-46.14l-19.72-51.76h-110.58l-19.72,51.76h-45.08l95.78-242.99ZM774.89,256.37l-40.5-106.71-40.5,106.71h81Z"/>
      <path class="cls-4" d="M866.57,281.73v-114.46h39.45v102.83c0,25.71,16.55,42.96,41.9,42.96,26.77,0,44.73-17.6,44.73-43.66v-102.13h39.45v179.6h-39.45v-22.19c-13.73,17.26-33.46,26.41-57.4,26.41-41.21,0-68.67-27.47-68.67-69.37Z"/>
      <path class="cls-4" d="M1084.51,291.58v-88.4h-30.28v-35.92h18.31c9.16,0,14.08-4.93,14.08-14.08v-34.52h37.33v48.6h44.37v35.92h-44.37v82.05c0,15.85,9.86,25.36,26.41,25.36h17.95v36.27h-23.59c-39.09,0-60.22-19.72-60.22-55.29Z"/>
      <path class="cls-4" d="M1186.58,257.07c0-53.53,41.21-94.03,96.14-94.03s96.14,40.5,96.14,94.03-41.56,94.03-96.14,94.03-96.14-40.5-96.14-94.03ZM1338.01,257.07c0-31.69-23.6-55.99-55.29-55.99s-55.64,24.29-55.64,55.99,23.95,55.99,55.64,55.99,55.29-24.29,55.29-55.99Z"/>
      <path class="cls-4" d="M1401.35,225.37c0-71.49,55.29-125.72,127.84-125.72,60.92,0,109.52,38.39,121.5,92.27h-44.37c-10.92-30.99-40.85-51.77-77.12-51.77-47.89,0-84.52,36.62-84.52,85.22s36.63,85.22,84.52,85.22c36.27,0,66.2-20.78,77.12-51.77h44.37c-11.98,53.88-60.57,92.27-121.5,92.27-72.54,0-127.84-54.23-127.84-125.72Z"/>
      <path class="cls-4" d="M1676.32,93.32h39.44v253.55h-39.44V93.32Z"/>
      <path class="cls-4" d="M1750.59,113.38c0-14.44,10.92-25,25-25s25.36,10.56,25.36,25-10.92,25.01-25.36,25.01-25-10.92-25-25.01ZM1755.88,167.27h39.44v179.6h-39.44v-179.6Z"/>
      <path class="cls-4" d="M1822.5,257.07c0-53.53,41.21-94.03,95.79-94.03s96.14,40.5,96.14,94.38c0,4.93-.36,10.21-1.06,14.79h-148.61c5.99,26.06,27.12,43.32,55.29,43.32,20.78,0,38.74-9.16,47.89-22.89h43.67c-14.44,34.87-49.65,58.46-92.27,58.46-55.64,0-96.84-40.5-96.84-94.03ZM1865.11,239.81h107.06c-5.99-24.65-27.12-41.2-53.88-41.2s-46.84,16.2-53.18,41.2Z"/>
      <path class="cls-4" d="M2038.33,167.27h39.45v22.89c14.44-17.61,35.21-27.12,60.57-27.12,42.61,0,71.13,28.17,71.13,70.79v113.04h-39.44v-100.01c0-27.47-17.61-45.78-44.73-45.78-28.53,0-47.54,18.66-47.54,46.48v99.31h-39.45v-179.6Z"/>
      <path class="cls-4" d="M2257.32,291.58v-88.4h-30.28v-35.92h18.31c9.16,0,14.08-4.93,14.08-14.08v-34.52h37.33v48.6h44.37v35.92h-44.37v82.05c0,15.85,9.86,25.36,26.41,25.36h17.95v36.27h-23.59c-39.09,0-60.22-19.72-60.22-55.29Z"/>
      <path class="cls-2" d="M25.04,382.82c-13.83,0-25.04-11.22-25.04-25.04v-99.01c0-13.83,11.22-25.04,25.04-25.04s25.04,11.22,25.04,25.04v99.01c0,13.83-11.22,25.04-25.04,25.04Z"/>
      <path class="cls-3" d="M425.71,382.82c-13.83,0-25.04-11.22-25.04-25.04v-149.09c0-13.83,11.22-25.04,25.04-25.04s25.04,11.22,25.04,25.04v149.09c0,13.83-11.22,25.04-25.04,25.04Z"/>
      <path class="cls-2" d="M125.21,399.51c-13.83,0-25.04-11.22-25.04-25.04v-199.18c0-13.83,11.22-25.04,25.04-25.04s25.04,11.22,25.04,25.04v199.18c0,13.83-11.22,25.04-25.04,25.04Z"/>
      <path class="cls-3" d="M325.55,366.12c-13.83,0-25.04-11.22-25.04-25.04V108.52c0-13.83,11.22-25.04,25.04-25.04s25.04,11.22,25.04,25.04v232.57c0,13.83-11.22,25.04-25.04,25.04Z"/>
      <path class="cls-1" d="M225.38,316.04c-13.83,0-25.04-11.22-25.04-25.04V25.04c0-13.83,11.22-25.04,25.04-25.04s25.04,11.22,25.04,25.04v265.96c0,13.83-11.22,25.04-25.04,25.04Z"/>
    </g>
  </g>
</svg>